# xmcd
#
# Track frame offsets:
#	150
#	14270
#	27603
#	37817
#	46287
#	57872
#	70043
#	80388
#	90520
#	104429
#	115307
#	127239
#	140788
#	154363
#	168063
#	177309
#
# Disc length: 2480 seconds
#
# Revision: 1
# Processed by: cddbd v1.4PL0 Copyright (c) Steve Scherf et al.
# Submitted via: audiograbber 1.80
#
DISCID=d609ae10
DTITLE=Willie Nelson - Legendary Hits
DYEAR=1900
DGENRE=
TTITLE0=Will You Remember Me
TTITLE1=I Just Don't Understand
TTITLE2=New Way To Cry
TTITLE3=Slow Down Old World
TTITLE4=I'm Gonna Lose A Lot Of Teardrops
TTITLE5=Happiness Lives Next Door
TTITLE6=Pride Wins Again
TTITLE7=Healing Hands Of Time
TTITLE8=Home Is Where You're Happy
TTITLE9=I Feel Sorry For Him
TTITLE10=I Hope So
TTITLE11=Everything But You
TTITLE12=Undo The Wrong
TTITLE13=A Moments Isn't Very Long
TTITLE14=Waiting Time
TTITLE15=Why Are You Picking On Me
EXTD=
EXTT0=
EXTT1=
EXTT2=
EXTT3=
EXTT4=
EXTT5=
EXTT6=
EXTT7=
EXTT8=
EXTT9=
EXTT10=
EXTT11=
EXTT12=
EXTT13=
EXTT14=
EXTT15=
PLAYORDER=
